HIERARCHY
ROOT mixamorig:Hips
{
	OFFSET -0.000008 104.274872 1.554316
	CHANNELS 6 Xposition Yposition Zposition Xrotation Yrotation Zrotation
	JOINT mixamorig:Spine
	{
		OFFSET -0.000005 10.181595 0.131519
		CHANNELS 6 Xposition Yposition Zposition Xrotation Yrotation Zrotation
		JOINT mixamorig:Spine1
		{
			OFFSET -0.000000 9.893959 -1.470707
			CHANNELS 6 Xposition Yposition Zposition Xrotation Yrotation Zrotation
			JOINT mixamorig:Spine2
			{
				OFFSET -0.000000 9.220757 -1.370641
				CHANNELS 6 Xposition Yposition Zposition Xrotation Yrotation Zrotation
				JOINT mixamorig:Neck
				{
					OFFSET 0.000001 16.740417 -2.049036
					CHANNELS 6 Xposition Yposition Zposition Xrotation Yrotation Zrotation
					JOINT mixamorig:Head
					{
						OFFSET 0.000000 9.617874 1.685006
						CHANNELS 6 Xposition Yposition Zposition Xrotation Yrotation Zrotation
						JOINT mixamorig:HeadTop_End
						{
							OFFSET 0.000002 22.037354 7.501101
							CHANNELS 6 Xposition Yposition Zposition Xrotation Yrotation Zrotation
							End Site
							{
								OFFSET 0.000168 2310.654297 -282.823242
							}
						}
					}
				}
				JOINT mixamorig:RightShoulder
				{
					OFFSET -4.569970 11.014908 -2.160885
					CHANNELS 6 Xposition Yposition Zposition Xrotation Yrotation Zrotation
					JOINT mixamorig:RightArm
					{
						OFFSET -10.592851 -0.524811 -2.232101
						CHANNELS 6 Xposition Yposition Zposition Xrotation Yrotation Zrotation
						JOINT mixamorig:RightForeArm
						{
							OFFSET -27.841511 0.000031 -0.000004
							CHANNELS 6 Xposition Yposition Zposition Xrotation Yrotation Zrotation
							JOINT mixamorig:RightHand
							{
								OFFSET -28.328831 -0.000015 0.000015
								CHANNELS 6 Xposition Yposition Zposition Xrotation Yrotation Zrotation
								JOINT mixamorig:RightHandThumb1
								{
									OFFSET -2.464806 -1.573990 2.681852
									CHANNELS 6 Xposition Yposition Zposition Xrotation Yrotation Zrotation
									JOINT mixamorig:RightHandThumb2
									{
										OFFSET -3.215179 -1.872803 1.924282
										CHANNELS 6 Xposition Yposition Zposition Xrotation Yrotation Zrotation
										JOINT mixamorig:RightHandThumb3
										{
											OFFSET -2.654831 -1.527969 1.512609
											CHANNELS 6 Xposition Yposition Zposition Xrotation Yrotation Zrotation
											JOINT mixamorig:RightHandThumb4
											{
												OFFSET -2.018814 -1.152008 1.108052
												CHANNELS 6 Xposition Yposition Zposition Xrotation Yrotation Zrotation
												End Site
												{
													OFFSET -188.809540 -114.533607 132.431396
												}
											}
										}
									}
								}
								JOINT mixamorig:RightHandIndex1
								{
									OFFSET -9.108284 -0.517868 2.259835
									CHANNELS 6 Xposition Yposition Zposition Xrotation Yrotation Zrotation
									JOINT mixamorig:RightHandIndex2
									{
										OFFSET -3.699989 0.000000 0.001215
										CHANNELS 6 Xposition Yposition Zposition Xrotation Yrotation Zrotation
										JOINT mixamorig:RightHandIndex3
										{
											OFFSET -2.850006 0.000031 -0.000522
											CHANNELS 6 Xposition Yposition Zposition Xrotation Yrotation Zrotation
											JOINT mixamorig:RightHandIndex4
											{
												OFFSET -2.772186 -0.000015 -0.000020
												CHANNELS 6 Xposition Yposition Zposition Xrotation Yrotation Zrotation
												End Site
												{
													OFFSET -277.218445 0.000000 -0.050231
												}
											}
										}
									}
								}
								JOINT mixamorig:RightHandMiddle1
								{
									OFFSET -9.532516 -0.000031 -0.000023
									CHANNELS 6 Xposition Yposition Zposition Xrotation Yrotation Zrotation
									JOINT mixamorig:RightHandMiddle2
									{
										OFFSET -3.700005 -0.000015 0.003713
										CHANNELS 6 Xposition Yposition Zposition Xrotation Yrotation Zrotation
										JOINT mixamorig:RightHandMiddle3
										{
											OFFSET -2.949974 0.000015 -0.002054
											CHANNELS 6 Xposition Yposition Zposition Xrotation Yrotation Zrotation
											JOINT mixamorig:RightHandMiddle4
											{
												OFFSET -2.946640 0.000000 -0.000156
												CHANNELS 6 Xposition Yposition Zposition Xrotation Yrotation Zrotation
												End Site
												{
													OFFSET -294.664337 0.000000 -0.113670
												}
											}
										}
									}
								}
								JOINT mixamorig:RightHandRing1
								{
									OFFSET -9.103600 -0.043076 -1.865134
									CHANNELS 6 Xposition Yposition Zposition Xrotation Yrotation Zrotation
									JOINT mixamorig:RightHandRing2
									{
										OFFSET -3.379288 0.000000 -0.001055
										CHANNELS 6 Xposition Yposition Zposition Xrotation Yrotation Zrotation
										JOINT mixamorig:RightHandRing3
										{
											OFFSET -2.889687 -0.000015 0.000379
											CHANNELS 6 Xposition Yposition Zposition Xrotation Yrotation Zrotation
											JOINT mixamorig:RightHandRing4
											{
												OFFSET -2.638809 -0.000015 0.000941
												CHANNELS 6 Xposition Yposition Zposition Xrotation Yrotation Zrotation
												End Site
												{
													OFFSET -263.880371 0.000000 0.516020
												}
											}
										}
									}
								}
								JOINT mixamorig:RightHandPinky1
								{
									OFFSET -8.076683 -0.486710 -3.806280
									CHANNELS 6 Xposition Yposition Zposition Xrotation Yrotation Zrotation
									JOINT mixamorig:RightHandPinky2
									{
										OFFSET -3.600014 -0.000015 -0.003747
										CHANNELS 6 Xposition Yposition Zposition Xrotation Yrotation Zrotation
										JOINT mixamorig:RightHandPinky3
										{
											OFFSET -2.099983 0.000000 -0.005739
											CHANNELS 6 Xposition Yposition Zposition Xrotation Yrotation Zrotation
											JOINT mixamorig:RightHandPinky4
											{
												OFFSET -2.115768 -0.000031 -0.003680
												CHANNELS 6 Xposition Yposition Zposition Xrotation Yrotation Zrotation
												End Site
												{
													OFFSET -211.577087 0.000000 -0.350686
												}
											}
										}
									}
								}
							}
						}
					}
				}
				JOINT mixamorig:LeftShoulder
				{
					OFFSET 4.570447 11.014725 -2.160855
					CHANNELS 6 Xposition Yposition Zposition Xrotation Yrotation Zrotation
					JOINT mixamorig:LeftArm
					{
						OFFSET 10.592371 -0.524597 -2.232119
						CHANNELS 6 Xposition Yposition Zposition Xrotation Yrotation Zrotation
						JOINT mixamorig:LeftForeArm
						{
							OFFSET 27.841532 -0.000031 0.000026
							CHANNELS 6 Xposition Yposition Zposition Xrotation Yrotation Zrotation
							JOINT mixamorig:LeftHand
							{
								OFFSET 28.328846 -0.000061 0.000022
								CHANNELS 6 Xposition Yposition Zposition Xrotation Yrotation Zrotation
								JOINT mixamorig:LeftHandThumb1
								{
									OFFSET 2.466141 -1.576172 2.681732
									CHANNELS 6 Xposition Yposition Zposition Xrotation Yrotation Zrotation
									JOINT mixamorig:LeftHandThumb2
									{
										OFFSET 3.217812 -1.872070 1.916482
										CHANNELS 6 Xposition Yposition Zposition Xrotation Yrotation Zrotation
										JOINT mixamorig:LeftHandThumb3
										{
											OFFSET 2.656029 -1.528778 1.514513
											CHANNELS 6 Xposition Yposition Zposition Xrotation Yrotation Zrotation
											JOINT mixamorig:LeftHandThumb4
											{
												OFFSET 2.020889 -1.154053 1.115139
												CHANNELS 6 Xposition Yposition Zposition Xrotation Yrotation Zrotation
												End Site
												{
													OFFSET 190.885437 -115.081749 130.048782
												}
											}
										}
									}
								}
								JOINT mixamorig:LeftHandIndex1
								{
									OFFSET 9.109314 -0.518021 2.259871
									CHANNELS 6 Xposition Yposition Zposition Xrotation Yrotation Zrotation
									JOINT mixamorig:LeftHandIndex2
									{
										OFFSET 3.699989 0.000000 -0.000322
										CHANNELS 6 Xposition Yposition Zposition Xrotation Yrotation Zrotation
										JOINT mixamorig:LeftHandIndex3
										{
											OFFSET 2.850006 0.000000 0.000352
											CHANNELS 6 Xposition Yposition Zposition Xrotation Yrotation Zrotation
											JOINT mixamorig:LeftHandIndex4
											{
												OFFSET 2.774864 -0.000031 -0.000027
												CHANNELS 6 Xposition Yposition Zposition Xrotation Yrotation Zrotation
												End Site
												{
													OFFSET 277.486267 0.000000 -0.009857
												}
											}
										}
									}
								}
								JOINT mixamorig:LeftHandMiddle1
								{
									OFFSET 9.533394 0.000061 0.000044
									CHANNELS 6 Xposition Yposition Zposition Xrotation Yrotation Zrotation
									JOINT mixamorig:LeftHandMiddle2
									{
										OFFSET 3.699989 -0.000015 -0.000231
										CHANNELS 6 Xposition Yposition Zposition Xrotation Yrotation Zrotation
										JOINT mixamorig:LeftHandMiddle3
										{
											OFFSET 2.949997 -0.000015 -0.000059
											CHANNELS 6 Xposition Yposition Zposition Xrotation Yrotation Zrotation
											JOINT mixamorig:LeftHandMiddle4
											{
												OFFSET 2.952896 0.000031 0.000063
												CHANNELS 6 Xposition Yposition Zposition Xrotation Yrotation Zrotation
												End Site
												{
													OFFSET 295.289337 0.000000 0.022810
												}
											}
										}
									}
								}
								JOINT mixamorig:LeftHandRing1
								{
									OFFSET 9.104523 -0.042999 -1.865074
									CHANNELS 6 Xposition Yposition Zposition Xrotation Yrotation Zrotation
									JOINT mixamorig:LeftHandRing2
									{
										OFFSET 3.150009 -0.000031 0.000043
										CHANNELS 6 Xposition Yposition Zposition Xrotation Yrotation Zrotation
										JOINT mixamorig:LeftHandRing3
										{
											OFFSET 2.949982 -0.000015 0.000040
											CHANNELS 6 Xposition Yposition Zposition Xrotation Yrotation Zrotation
											JOINT mixamorig:LeftHandRing4
											{
												OFFSET 2.644348 0.000000 0.000057
												CHANNELS 6 Xposition Yposition Zposition Xrotation Yrotation Zrotation
												End Site
												{
													OFFSET 264.434631 0.000000 0.012105
												}
											}
										}
									}
								}
								JOINT mixamorig:LeftHandPinky1
								{
									OFFSET 8.077789 -0.486847 -3.806259
									CHANNELS 6 Xposition Yposition Zposition Xrotation Yrotation Zrotation
									JOINT mixamorig:LeftHandPinky2
									{
										OFFSET 3.599953 0.000031 0.014727
										CHANNELS 6 Xposition Yposition Zposition Xrotation Yrotation Zrotation
										JOINT mixamorig:LeftHandPinky3
										{
											OFFSET 2.100021 0.000015 0.007705
											CHANNELS 6 Xposition Yposition Zposition Xrotation Yrotation Zrotation
											JOINT mixamorig:LeftHandPinky4
											{
												OFFSET 2.125504 0.000031 0.007517
												CHANNELS 6 Xposition Yposition Zposition Xrotation Yrotation Zrotation
												End Site
												{
													OFFSET 212.550781 0.000000 0.625752
												}
											}
										}
									}
								}
							}
						}
					}
				}
			}
		}
	}
	JOINT mixamorig:RightUpLeg
	{
		OFFSET -8.207787 -6.751648 -1.599560
		CHANNELS 6 Xposition Yposition Zposition Xrotation Yrotation Zrotation
		JOINT mixamorig:RightLeg
		{
			OFFSET -0.000002 -44.370117 0.345942
			CHANNELS 6 Xposition Yposition Zposition Xrotation Yrotation Zrotation
			JOINT mixamorig:RightFoot
			{
				OFFSET 0.000003 -44.423679 -3.043532
				CHANNELS 6 Xposition Yposition Zposition Xrotation Yrotation Zrotation
				JOINT mixamorig:RightToeBase
				{
					OFFSET -0.000002 -8.728671 10.710558
					CHANNELS 6 Xposition Yposition Zposition Xrotation Yrotation Zrotation
					JOINT mixamorig:RightToe_End
					{
						OFFSET -0.000001 -0.000679 9.278119
						CHANNELS 6 Xposition Yposition Zposition Xrotation Yrotation Zrotation
						End Site
						{
							OFFSET 0.000000 -0.067690 927.812134
						}
					}
				}
			}
		}
	}
	JOINT mixamorig:LeftUpLeg
	{
		OFFSET 8.207793 -6.751686 -1.599556
		CHANNELS 6 Xposition Yposition Zposition Xrotation Yrotation Zrotation
		JOINT mixamorig:LeftLeg
		{
			OFFSET -0.000004 -44.370014 0.346954
			CHANNELS 6 Xposition Yposition Zposition Xrotation Yrotation Zrotation
			JOINT mixamorig:LeftFoot
			{
				OFFSET -0.000001 -44.423672 -3.044401
				CHANNELS 6 Xposition Yposition Zposition Xrotation Yrotation Zrotation
				JOINT mixamorig:LeftToeBase
				{
					OFFSET -0.000002 -8.728669 10.710558
					CHANNELS 6 Xposition Yposition Zposition Xrotation Yrotation Zrotation
					JOINT mixamorig:LeftToe_End
					{
						OFFSET -0.000003 -0.000679 9.278133
						CHANNELS 6 Xposition Yposition Zposition Xrotation Yrotation Zrotation
						End Site
						{
							OFFSET 0.000000 -0.068021 927.813477
						}
					}
				}
			}
		}
	}
}
MOTION
Frames: 3
Frame Time: 0.033333
0.000006 104.270477 1.554256 0.000010 0.000003 -0.000113 -0.000005 10.181587 0.131522 0.000001 -0.000003 0.000084 -0.000000 9.893967 -1.470711 0.000001 0.000000 -0.000000 -0.000000 9.220802 -1.370642 0.000000 -0.000000 -0.000000 0.000001 16.740433 -2.049030 0.000000 -0.000000 -0.000000 0.000000 9.617859 1.685014 0.000000 0.000000 0.000000 0.000002 22.037384 7.501101 0.000000 -0.000000 0.000000 -4.569968 11.014880 -2.160881 0.000008 0.000001 -0.000038 -10.592840 -0.524813 -2.231819 66.431035 49.260793 -33.419187 -27.841484 0.000009 0.000575 -30.426748 107.456142 40.668162 -28.328844 0.000023 0.000022 -0.000321 -0.000044 0.000010 -2.464436 -1.574121 2.682045 -103.741776 -67.809490 -87.579636 -3.215147 -1.872415 1.924497 114.158921 55.530801 101.335193 -2.654909 -1.527707 1.512879 122.664310 31.067535 38.474490 -2.018842 -1.151998 1.108063 -0.000003 -0.000003 0.000002 -9.108410 -0.517608 2.260255 124.979922 18.569290 -35.007896 -3.700004 0.000339 0.001381 51.890566 1.506583 -31.441608 -2.850011 0.000248 -0.000523 29.157299 -3.624807 -20.217244 -2.772164 -0.000001 -0.000019 -0.000001 -0.000002 0.000003 -9.532639 0.000231 0.000299 111.776688 24.044108 -18.836332 -3.699850 0.000293 0.003736 42.975205 -29.864582 -14.854412 -2.950086 -0.000011 -0.001984 16.499230 38.379806 33.026874 -2.946620 0.000011 -0.000156 0.000004 -0.000001 0.000001 -9.103606 -0.042671 -1.864865 96.549088 -5.772282 -14.808105 -3.379036 0.000256 -0.001063 46.184902 -42.323687 0.574416 -2.889460 0.000178 0.000338 25.691026 -45.324183 -5.429160 -2.638814 -0.000029 0.000939 -0.000001 0.000001 0.000002 -8.076647 -0.486308 -3.805953 102.464565 -7.297197 -9.034048 -3.599969 0.000000 -0.003768 22.038060 6.891701 28.540292 -2.099945 -0.000003 -0.005780 15.480209 0.282092 25.673305 -2.115764 -0.000022 -0.003668 -0.000001 -0.000001 -0.000005 4.570446 11.014691 -2.160851 -0.000018 0.000010 -0.000021 10.592500 -0.524549 -2.232370 48.076196 -66.756377 32.751611 27.841751 -0.000086 -0.000086 51.004164 -109.223980 67.765175 28.328840 -0.000014 0.000027 0.000022 -0.000090 -0.000000 2.466128 -1.576167 2.681853 115.893120 135.599554 -157.607708 3.217809 -1.872010 1.916546 73.080483 130.006709 233.820106 2.655993 -1.528835 1.514601 -141.150640 49.385307 83.513263 2.020891 -1.154058 1.115161 0.000000 0.000000 0.000003 9.109177 -0.517693 2.260038 29.912465 -167.816286 136.462194 3.699709 0.000190 -0.000220 -171.932240 -11.421635 -109.589750 2.850121 0.000155 0.000395 -188.101306 -6.997947 81.600782 2.774875 -0.000035 -0.000024 -0.000000 -0.000002 0.000002 9.533282 0.000396 0.000191 -156.755888 -7.530723 -35.467321 3.699686 0.000155 -0.000163 -177.895514 -3.967694 -124.155832 2.950079 0.000348 -0.000061 -198.809253 -2.631335 15.805404 2.952856 -0.000046 0.000058 0.000001 -0.000001 0.000001 9.104416 -0.042642 -1.864952 -162.491198 -4.713788 -29.935117 3.149948 -0.000045 0.000099 -178.886944 2.254773 127.365270 2.949943 0.000453 0.000038 -196.401584 1.792627 -12.382276 2.644318 0.000014 0.000056 0.000000 0.000001 -0.000000 8.077662 -0.486502 -3.806148 12.906624 -176.069955 143.723013 3.599764 -0.000003 0.014780 -0.127939 -185.817619 -6.199967 2.099748 0.000424 0.007689 -194.585683 8.916535 -61.808882 2.125495 -0.000002 0.007515 -0.000008 0.000000 0.000000 -8.207786 -6.751667 -1.599560 -0.077001 -0.000003 0.000080 -0.000002 -44.370110 0.345938 0.153719 -0.000000 -0.000000 0.000000 -44.423679 -3.043532 -0.076700 0.000000 -0.000002 -0.000006 -8.728667 10.710559 -0.000009 -0.000000 -0.000000 -0.000001 -0.000679 9.278123 0.000000 -0.000000 -0.000000 8.207792 -6.751710 -1.599556 -0.074518 -0.000003 0.000081 -0.000002 -44.370014 0.346960 0.148822 0.000002 0.000000 -0.000001 -44.423664 -3.044403 -0.074314 0.000000 -0.000002 -0.000004 -8.728671 10.710558 0.000007 -0.000000 -0.000000 0.000000 -0.000680 9.278137 -0.000000 0.000000 -0.000001 
0.000006 104.270477 1.554256 0.000010 0.000003 -0.000113 -0.000005 10.181587 0.131522 0.000001 -0.000003 0.000084 -0.000000 9.893967 -1.470711 0.000001 0.000000 -0.000000 -0.000000 9.220802 -1.370642 0.000000 -0.000000 -0.000000 0.000001 16.740433 -2.049030 0.000000 -0.000000 -0.000000 0.000000 9.617859 1.685014 0.000000 0.000000 0.000000 0.000002 22.037384 7.501101 0.000000 -0.000000 0.000000 -4.569968 11.014880 -2.160881 0.000008 0.000001 -0.000038 -10.592831 -0.524813 -2.231809 66.805752 52.530244 -36.052016 -27.841476 -0.000019 0.000596 -4.636522 106.250819 6.178295 -28.328836 0.000008 0.000017 -0.000318 -0.000044 0.000007 -2.464447 -1.574128 2.682281 -161.076092 -53.262085 -102.850607 -3.214698 -1.872710 1.924716 143.050498 -32.421016 186.104869 -2.654514 -1.527701 1.513033 127.776447 -4.934281 142.964698 -2.018815 -1.152003 1.108052 -0.000001 -0.000002 0.000000 -9.108386 -0.517643 2.260298 135.080979 16.920773 -39.692193 -3.700111 -0.000030 0.001344 -13.061280 26.545079 3.096534 -2.850058 -0.000136 -0.000327 -53.068876 6.174642 3.085100 -2.772159 -0.000004 -0.000020 0.000003 0.000000 -0.000002 -9.532585 0.000224 0.000418 132.055752 12.061888 -27.044006 -3.699996 -0.000100 0.003767 -28.295628 -4.946344 -1.271288 -2.949969 -0.000209 -0.001894 -56.066953 -3.984316 -2.125561 -2.946624 -0.000013 -0.000154 -0.000000 -0.000003 -0.000003 -9.103668 -0.042760 -1.864710 130.150552 9.563420 -20.318522 -3.379147 -0.000173 -0.001004 -39.647896 -27.694706 -10.146935 -2.889625 -0.000206 0.000535 -59.617463 -15.672789 -8.986564 -2.638809 -0.000030 0.000940 -0.000000 0.000000 0.000000 -8.076693 -0.486400 -3.805833 134.905197 4.202885 -9.783724 -3.599844 -0.000244 -0.003683 -44.715981 -25.939843 -11.027712 -2.099916 -0.000225 -0.005599 -57.923563 -14.755164 -8.339973 -2.115776 -0.000071 -0.003679 0.000000 -0.000000 -0.000003 4.570446 11.014691 -2.160851 -0.000018 0.000010 -0.000021 10.592505 -0.524558 -2.232370 50.490671 -65.633391 33.826573 27.841721 -0.000081 -0.000081 54.070984 -110.280692 72.453492 28.328838 -0.000028 0.000012 0.000022 -0.000089 0.000000 2.466142 -1.576184 2.681858 126.577844 150.074392 -164.561291 3.217808 -1.872000 1.916546 85.409596 137.200974 222.087836 2.655962 -1.528811 1.514612 -156.524768 48.142185 98.186039 2.020883 -1.154069 1.115137 0.000004 0.000004 0.000003 9.109172 -0.517696 2.260050 28.053726 -169.442049 139.427657 3.700056 0.000204 -0.000460 -254.582624 -13.363321 17.512489 2.850017 0.000108 0.000220 -310.845270 -2.773666 1.268226 2.774898 -0.000021 -0.000018 0.000001 0.000000 -0.000001 9.533267 0.000412 0.000196 -160.604303 -7.128110 -40.026988 3.699985 0.000202 -0.000404 -274.763593 4.714136 -4.339889 2.950003 0.000036 -0.000191 -324.695636 5.270449 -1.677578 2.952869 -0.000018 0.000074 -0.000000 -0.000002 -0.000001 9.104383 -0.042646 -1.864935 -162.474737 -6.535234 -40.654324 3.149945 0.000191 -0.000160 -110.641838 159.705081 165.881908 2.949967 0.000027 -0.000086 -330.530203 13.738522 -3.629192 2.644326 0.000045 0.000073 0.000000 -0.000001 -0.000000 8.077655 -0.486492 -3.806118 17.431973 -174.552492 143.671800 3.599869 0.000148 0.014520 63.406565 -333.156711 -16.664827 2.099975 0.000044 0.007592 -328.997098 19.911282 -5.541971 2.125512 -0.000000 0.007522 -0.000000 0.000001 0.000003 -8.207786 -6.751667 -1.599560 -0.077001 -0.000003 0.000080 -0.000002 -44.370110 0.345938 0.153719 -0.000000 -0.000000 0.000000 -44.423679 -3.043532 -0.076700 0.000000 -0.000002 -0.000006 -8.728667 10.710559 -0.000009 -0.000000 -0.000000 -0.000001 -0.000679 9.278123 0.000000 -0.000000 -0.000000 8.207792 -6.751710 -1.599556 -0.074518 -0.000003 0.000081 -0.000002 -44.370014 0.346960 0.148822 0.000002 0.000000 -0.000001 -44.423664 -3.044403 -0.074314 0.000000 -0.000002 -0.000004 -8.728671 10.710558 0.000007 -0.000000 -0.000000 0.000000 -0.000680 9.278137 -0.000000 0.000000 -0.000001 
0.000006 104.270477 1.554256 0.000010 0.000003 -0.000113 -0.000005 10.181587 0.131522 0.000001 -0.000003 0.000084 -0.000000 9.893967 -1.470711 0.000001 0.000000 -0.000000 -0.000000 9.220802 -1.370642 0.000000 -0.000000 -0.000000 0.000001 16.740433 -2.049030 0.000000 -0.000000 -0.000000 0.000000 9.617859 1.685014 0.000000 0.000000 0.000000 0.000002 22.037384 7.501101 0.000000 -0.000000 0.000000 -4.569968 11.014880 -2.160881 0.000008 0.000001 -0.000038 -10.592815 -0.524840 -2.231771 67.828751 58.905457 -41.579320 -27.841457 0.000003 0.000613 11.988630 108.313502 -16.541217 -28.328850 0.000019 0.000019 -0.000321 -0.000046 0.000009 -2.464485 -1.574170 2.682224 -141.936180 -52.379724 -82.990145 -3.214753 -1.872896 1.924741 178.943416 -42.741435 238.214103 -2.654418 -1.527892 1.513110 143.672155 -22.916120 186.592586 -2.018822 -1.151999 1.108063 -0.000004 -0.000003 0.000000 -9.108375 -0.517717 2.260339 150.706485 14.468291 -51.985454 -3.700055 0.000197 0.001297 39.848778 13.920025 -5.057595 -2.850022 -0.000004 -0.000501 -7.885006 2.579346 0.177760 -2.772167 -0.000001 -0.000019 -0.000001 0.000001 0.000002 -9.532571 0.000172 0.000463 147.687596 9.811393 -33.486836 -3.699936 0.000139 0.003675 24.254140 -15.319945 3.316308 -2.949955 -0.000094 -0.002024 -20.301928 -8.377125 -1.504007 -2.946620 -0.000004 -0.000162 -0.000002 -0.000000 0.000001 -9.103660 -0.042816 -1.864650 147.461079 6.047858 -20.378744 -3.379075 0.000053 -0.001108 13.557597 -38.177008 4.714749 -2.889594 -0.000095 0.000379 -24.037708 -21.425183 -4.596394 -2.638813 -0.000004 0.000962 0.000001 0.000002 -0.000002 -8.076685 -0.486424 -3.805812 147.142957 1.320079 -4.049639 -3.599798 -0.000073 -0.003783 -7.350019 -35.997160 -2.510930 -2.099916 -0.000187 -0.005725 -34.019857 -15.728476 -4.929536 -2.115784 -0.000042 -0.003678 0.000002 0.000002 -0.000003 4.570446 11.014691 -2.160851 -0.000018 0.000010 -0.000021 10.592503 -0.524543 -2.232379 56.444601 -64.515795 37.426059 27.841715 -0.000070 -0.000083 60.375334 -110.512645 79.976673 28.328835 -0.000027 0.000021 0.000025 -0.000087 0.000002 2.466152 -1.576190 2.681849 129.414886 154.290176 -166.003117 3.217841 -1.871986 1.916547 87.116112 141.712628 219.356088 2.655994 -1.528832 1.514610 -150.152912 42.881758 87.790846 2.020899 -1.154078 1.115134 0.000004 0.000005 0.000002 9.109135 -0.517691 2.260021 23.347298 -167.456007 123.994926 3.700067 0.000147 -0.000454 -270.544339 -20.342325 20.171879 2.850029 0.000046 0.000244 -319.505021 -10.692157 3.953411 2.774882 -0.000047 -0.000023 -0.000001 -0.000001 -0.000001 9.533218 0.000388 0.000175 -162.641994 -8.785070 -53.406998 3.700015 0.000183 -0.000407 -278.504488 0.385066 -0.333688 2.950005 0.000022 -0.000164 -330.970750 0.562385 -0.144972 2.952867 -0.000014 0.000064 0.000004 0.000004 -0.000001 9.104354 -0.042685 -1.864968 -165.887045 -6.992632 -52.545502 3.149912 0.000196 -0.000159 -107.198337 158.275673 163.895771 2.949959 0.000039 -0.000072 -336.252153 13.747806 -2.903798 2.644309 0.000031 0.000045 -0.000001 -0.000001 0.000000 8.077692 -0.486477 -3.806139 16.466591 -176.811222 155.782832 3.599867 0.000136 0.014519 62.600822 -331.844823 -17.244097 2.099969 0.000035 0.007582 -332.590871 21.684749 -5.335175 2.125493 -0.000002 0.007491 0.000001 -0.000001 0.000001 -8.207786 -6.751667 -1.599560 -0.077001 -0.000003 0.000080 -0.000002 -44.370110 0.345938 0.153719 -0.000000 -0.000000 0.000000 -44.423679 -3.043532 -0.076700 0.000000 -0.000002 -0.000006 -8.728667 10.710559 -0.000009 -0.000000 -0.000000 -0.000001 -0.000679 9.278123 0.000000 -0.000000 -0.000000 8.207792 -6.751710 -1.599556 -0.074518 -0.000003 0.000081 -0.000002 -44.370014 0.346960 0.148822 0.000002 0.000000 -0.000001 -44.423664 -3.044403 -0.074314 0.000000 -0.000002 -0.000004 -8.728671 10.710558 0.000007 -0.000000 -0.000000 0.000000 -0.000680 9.278137 -0.000000 0.000000 -0.000001 
